#!OML:ASF I:\Actors\actors\Patient Classification 2\Patient 1\Session 1\actor1.ASF
:FULLY-SPECIFIED
:DEGREES
562
root -0.578207 18.7133 5.62949 2.0367 3.39581 -0.650367
lowerback 15.8314 1.64483 1.09152
upperback -2.39044 2.5748 1.40061
thorax -11.5732 1.19869 0.259847
lowerneck -2.15853 -3.54258 -2.03402
upperneck 43.6398 -5.15778 0.672024
head 16.0463 -2.34208 0.0145329
rclavicle 1.63749e-014 -1.66979e-014
rhumerus -76.9879 32.0354 -70.5125
rradius 143.2
rwrist -48.9336
rhand 14.4374 -60.9838
rfingers 7.12502
rthumb 39.3218 -86.4109
lclavicle 1.63749e-014 -1.66979e-014
lhumerus -57.8423 -34.1008 59.4246
lradius 144.24
lwrist 66.5934
lhand 13.8765 1.6271
lfingers 7.12502
lthumb 38.7931 27.2061
rfemur 0 0 0
rtibia 0
rfoot 0 0
rtoes 0
lfemur -6.20373 -4.01398 -13.2828
ltibia 22.0137
lfoot -20.8833 12.3207
ltoes -56.0987
563
root -0.577808 18.7107 5.63682 1.94666 3.33947 -0.611435
lowerback 15.3847 1.65442 0.942189
upperback -2.41928 2.55306 1.42665
thorax -11.3514 1.20232 0.390451
lowerneck -2.49953 -3.5297 -1.88282
upperneck 43.606 -5.11176 0.526151
head 16.0941 -2.31509 -0.0791074
rclavicle 6.90777e-015 1.98785e-015
rhumerus -77.5064 34.5304 -72.4984
rradius 143.377
rwrist -48.6101
rhand 14.0545 -61.1494
rfingers 7.12502
rthumb 38.9609 -86.6806
lclavicle 6.90777e-015 1.98785e-015
lhumerus -57.9594 -37.1983 60.8429
lradius 144.214
lwrist 66.7956
lhand 13.4104 1.78642
lfingers 7.12502
lthumb 38.3533 27.4886
rfemur 0 0 0
rtibia 0
rfoot 0 0
rtoes 0
lfemur -6.04359 -3.96496 -13.3397
ltibia 21.9788
lfoot -20.8912 12.3139
ltoes -56.0753
564
root -0.5786 18.7094 5.64314 1.87281 3.24178 -0.571328
lowerback 14.9018 1.62622 0.696751
upperback -2.49221 2.47794 1.57424
thorax -11.1676 1.19127 0.72092
lowerneck -2.68977 -3.44719 -2.03105
upperneck 43.6597 -4.90182 0.36185
head 16.1639 -2.27019 -0.102415
rclavicle 8.57259e-015 2.66371e-014
rhumerus -78.181 37.4019 -74.2655
rradius 143.72
rwrist -48.7775
rhand 13.9223 -61.4813
rfingers 7.12502
rthumb 38.8362 -87.048
lclavicle 8.57259e-015 2.66371e-014
lhumerus -58.5484 -39.931 62.5149
lradius 144.372
lwrist 67.0976
lhand 12.9264 1.8571
lfingers 7.12502
lthumb 37.8964 27.6844
rfemur 0 0 0
rtibia 0
rfoot 0 0
rtoes 0
lfemur -5.88525 -3.98281 -13.4028
ltibia 21.936
lfoot -20.9639 12.4103
ltoes -56.0596
565
root -0.580235 18.7091 5.64902 1.8039 3.08479 -0.590441
lowerback 14.3875 1.54647 0.404094
upperback -2.60117 2.33797 1.81834
thorax -11.0099 1.15579 1.19746
lowerneck -2.79303 -3.27611 -2.44102
upperneck 43.8671 -4.57229 0.343737
head 16.3144 -2.1999 0.00237045
rclavicle -2.33572e-015 -1.51076e-014
rhumerus -79.0679 40.4509 -76.0103
rradius 144.077
rwrist -49.2729
rhand 13.9349 -61.8959
rfingers 7.12502
rthumb 38.8482 -87.4593
lclavicle -2.33572e-015 -1.51076e-014
lhumerus -59.4555 -42.0603 64.1536
lradius 144.659
lwrist 67.2123
lhand 12.8555 2.35902
lfingers 7.12502
lthumb 37.8294 28.2045
rfemur 0 0 0
rtibia 0
rfoot 0 0
rtoes 0
lfemur -5.72219 -3.9622 -13.3938
ltibia 21.8853
lfoot -21.0434 12.511
ltoes -56.0624
566
root -0.580155 18.7084 5.65335 1.73209 2.91928 -0.623225
lowerback 13.8943 1.48292 0.235796
upperback -2.66139 2.22978 1.93936
thorax -10.7973 1.12157 1.45968
lowerneck -2.96287 -3.15194 -2.57743
upperneck 44.0851 -4.36825 0.340332
head 16.4803 -2.13693 0.0464977
rclavicle 3.2054e-014 1.90833e-014
rhumerus -79.924 43.1201 -77.6901
rradius 144.33
rwrist -49.9674
rhand 14.0744 -62.2302
rfingers 7.12502
rthumb 38.9797 -87.756
lclavicle 3.2054e-014 1.90833e-014
lhumerus -60.0279 -44.0034 65.1997
lradius 144.983
lwrist 67.5346
lhand 12.781 2.86414
lfingers 7.12502
lthumb 37.759 28.7285
rfemur 0 0 0
rtibia 0
rfoot 0 0
rtoes 0
lfemur -5.56439 -3.9042 -13.3753
ltibia 21.8353
lfoot -21.0776 12.5979
ltoes -56.0811
567
root -0.578855 18.7067 5.6558 1.64123 2.76554 -0.621237
lowerback 13.484 1.44561 0.172542
upperback -2.66866 2.16605 1.96623
thorax -10.5662 1.0971 1.54705
lowerneck -3.28507 -3.0706 -2.57203
upperneck 44.2967 -4.24254 0.317687
head 16.677 -2.08486 0.0430755
rclavicle 9.59136e-015 2.38542e-015
rhumerus -80.6429 45.3691 -79.1551
rradius 144.449
rwrist -50.4485
rhand 14.2397 -62.7953
rfingers 7.12502
rthumb 39.1355 -88.2764
lclavicle 9.59136e-015 2.38542e-015
lhumerus -60.4836 -45.8474 66.0137
lradius 145.246
lwrist 67.9283
lhand 12.3053 2.97829
lfingers 7.12502
lthumb 37.3095 28.9621
rfemur 0 0 0
rtibia 0
rfoot 0 0
rtoes 0
lfemur -5.38961 -3.90788 -13.4088
ltibia 21.7922
lfoot -21.1586 12.7114
ltoes -56.028
568
root -0.578237 18.7044 5.65682 1.53482 2.61543 -0.623468
lowerback 13.171 1.44387 0.160257
upperback -2.70264 2.15566 1.94092
thorax -10.4192 1.09261 1.53468
lowerneck -3.5525 -3.03394 -2.41455
upperneck 44.5048 -4.19465 0.246116
head 16.8549 -2.04624 -0.0192463
rclavicle -3.09359e-015 9.54166e-015
rhumerus -81.5234 47.1172 -80.6697
rradius 144.403
rwrist -50.396
rhand 14.128 -63.1736
rfingers 7.12502
rthumb 39.0302 -88.685
lclavicle -3.09359e-015 9.54166e-015
lhumerus -61.0403 -47.6219 66.8125
lradius 145.386
lwrist 68.1978
lhand 11.5088 2.85078
lfingers 7.12502
lthumb 36.5559 29.0288
rfemur 0 0 0
rtibia 0
rfoot 0 0
rtoes 0
lfemur -5.20349 -3.95003 -13.4367
ltibia 21.7501
lfoot -21.2642 12.8424
ltoes -55.9615
569
root -0.576035 18.702 5.65599 1.41363 2.48737 -0.601878
lowerback 12.9491 1.52533 0.240254
upperback -2.71419 2.25697 1.75768
thorax -10.293 1.12966 1.27355
lowerneck -3.8831 -3.13182 -1.88515
upperneck 44.6764 -4.3967 0.0990431
head 17.0167 -2.05778 -0.220195
rclavicle 1.85864e-014 1.11319e-014
rhumerus -82.529 47.9437 -82.294
rradius 144.177
rwrist -50.1453
rhand 13.718 -63.1464
rfingers 7.12502
rthumb 38.6436 -88.7675
lclavicle 1.85864e-014 1.11319e-014
lhumerus -61.3799 -49.5045 67.2968
lradius 145.45
lwrist 68.5566
lhand 10.4044 2.56701
lfingers 7.12502
lthumb 35.5098 29.0025
rfemur 0 0 0
rtibia 0
rfoot 0 0
rtoes 0
lfemur -5.01605 -3.96428 -13.4928
ltibia 21.7083
lfoot -21.3248 12.928
ltoes -55.9891
570
root -0.573065 18.7004 5.65464 1.29983 2.36082 -0.569336
lowerback 12.7775 1.50561 0.144017
upperback -2.74105 2.21535 1.78101
thorax -10.2259 1.117 1.36564
lowerneck -4.20342 -3.10573 -1.92985
upperneck 44.8692 -4.34911 0.0800899
head 17.2127 -2.04541 -0.224577
rclavicle 2.63638e-014 -7.55382e-015
rhumerus -83.4263 48.872 -83.5483
rradius 143.854
rwrist -50.5113
rhand 12.8716 -62.6793
rfingers 7.12502
rthumb 37.8446 -88.5206
lclavicle 2.63638e-014 -7.55382e-015
lhumerus -62.8645 -50.6114 68.8233
lradius 145.485
lwrist 68.6939
lhand 9.16909 2.28399
lfingers 7.12502
lthumb 34.3378 28.9921
rfemur 0 0 0
rtibia 0
rfoot 0 0
rtoes 0
lfemur -4.83526 -3.99706 -13.5662
ltibia 21.6656
lfoot -21.4075 13.0251
ltoes -56.1144
571
root -0.572466 18.6996 5.65493 1.21387 2.22475 -0.57445
lowerback 12.6182 1.45277 0.0254201
upperback -2.80813 2.13225 1.85608
thorax -10.2123 1.08788 1.53443
lowerneck -4.35305 -3.05543 -2.09243
upperneck 44.9999 -4.26013 0.107659
head 17.3355 -2.03293 -0.175579
rclavicle -8.77137e-015 7.95139e-016
rhumerus -84.609 49.6036 -84.9454
rradius 143.501
rwrist -51.3189
rhand 5.68767 -57.5463
rfingers 7.12502
rthumb 31.0257 -84.9429
lclavicle -8.77137e-015 7.95139e-016
lhumerus -64.997 -51.2751 70.8764
lradius 145.429
lwrist 68.8084
lhand 7.88377 2.01158
lfingers 7.12502
lthumb 33.1165 28.9871
rfemur 0 0 0
rtibia 0
rfoot 0 0
rtoes 0
lfemur -4.6814 -3.98731 -13.5814
ltibia 21.6185
lfoot -21.4481 13.1488
ltoes -56.3051
572
root -0.572085 18.6984 5.6558 1.13671 2.11996 -0.551395
lowerback 12.3299 1.49613 -0.00223674
upperback -2.7401 2.1715 1.75778
thorax -9.96592 1.1048 1.4419
lowerneck -4.65093 -3.14339 -1.81348
upperneck 45.0324 -4.43992 0.0560415
head 17.4215 -2.06573 -0.284495
rclavicle -1.30949e-014 -1.19271e-014
rhumerus -85.778 49.5301 -86.4237
rradius 143.132
rwrist -51.8917
rhand 11.6489 -62.5198
rfingers 7.12502
rthumb 36.6886 -88.6641
lclavicle -1.30949e-014 -1.19271e-014
lhumerus -66.4886 -52.0018 72.3166
lradius 145.248
lwrist 69.1445
lhand 6.42608 1.48334
lfingers 7.12502
lthumb 31.7292 28.7432
rfemur 0 0 0
rtibia 0
rfoot 0 0
rtoes 0
lfemur -4.54441 -3.959 -13.6167
ltibia 21.5728
lfoot -21.4729 13.2007
ltoes -56.338
573
root -0.570858 18.6977 5.65577 1.09194 2.02364 -0.504243
lowerback 11.7579 1.48279 -0.28657
upperback -2.4724 2.11041 1.88441
thorax -9.35206 1.095 1.76408
lowerneck -5.16201 -3.15721 -1.89893
upperneck 44.9841 -4.39555 -0.0586554
head 17.5211 -2.07425 -0.32742
rclavicle 4.27387e-015 1.43125e-014
rhumerus -86.342 49.6807 -87.2397
rradius 142.735
rwrist -52.3118
rhand 10.4389 -62.3112
rfingers 7.12502
rthumb 35.5425 -88.7388
lclavicle 4.27387e-015 1.43125e-014
lhumerus -67.9989 -51.8688 74.0253
lradius 144.926
lwrist 69.3962
lhand 4.93908 0.895698
lfingers 7.12502
lthumb 30.3119 28.426
rfemur 0 0 0
rtibia 0
rfoot 0 0
rtoes 0
lfemur -4.44547 -4.01134 -13.6878
ltibia 21.5356
lfoot -21.5729 13.2363
ltoes -56.1891
574
root -0.570021 18.6968 5.65632 1.03773 1.91523 -0.556986
lowerback 12.0372 1.52799 -0.094487
upperback -2.79704 2.20329 1.81361
thorax -9.86447 1.12832 1.5533
lowerneck -4.91551 -3.22656 -2.05452
upperneck 45.1406 -4.52116 0.0456946
head 17.5665 -2.13989 -0.266976
rclavicle 1.85522e-014 -1.59028e-015
rhumerus -88.5999 49.0181 -89.4374
rradius 142.386
rwrist -52.5596
rhand 9.50883 -62.172
rfingers 7.12502
rthumb 34.6603 -88.8067
lclavicle 1.85522e-014 -1.59028e-015
lhumerus -70.8235 -51.9457 76.6519
lradius 144.59
lwrist 69.7822
lhand 3.30518 0.574145
lfingers 7.12502
lthumb 28.7521 28.3803
rfemur 0 0 0
rtibia 0
rfoot 0 0
rtoes 0
lfemur -4.33895 -4.06114 -13.6494
ltibia 21.5023
lfoot -21.6609 13.313
ltoes -56.101
575
root -0.569317 18.6947 5.65782 0.945577 1.84282 -0.677855
lowerback 11.979 1.50801 -0.0643152
upperback -2.78735 2.19067 1.92009
thorax -9.82298 1.12431 1.65469
lowerneck -5.13366 -3.22249 -2.22958
upperneck 45.1983 -4.48216 0.0535738
head 17.6655 -2.15105 -0.232398
rclavicle -1.19302e-014 -7.95139e-016
rhumerus -88.9798 48.4774 -89.7495
rradius 141.635
rwrist -52.4274
rhand 12.3315 -62.9424
rfingers 7.12502
rthumb 37.3342 -88.9197
lclavicle -1.19302e-014 -7.95139e-016
lhumerus -72.8581 -51.184 78.7384
lradius 144.118
lwrist 70.5044
lhand 1.58655 0.584384
lfingers 7.12502
lthumb 27.1091 28.6578
rfemur 0 0 0
rtibia 0
rfoot 0 0
rtoes 0
lfemur -4.20011 -4.09336 -13.5307
ltibia 21.4674
lfoot -21.7365 13.3766
ltoes -56.0903
576
root -0.568153 18.6928 5.65885 0.90737 1.83089 -0.662961
lowerback 11.4981 1.34656 -0.535262
upperback -2.53349 1.92877 2.30856
thorax -9.28701 1.0361 2.40001
lowerneck -5.54442 -3.05922 -2.68484
upperneck 45.1246 -4.04423 -0.132566
head 17.7296 -2.07195 -0.178286
rclavicle 5.77097e-015 1.19271e-014
rhumerus -88.732 48.5671 -89.4006
rradius 140.85
rwrist -53.3992
rhand 13.5723 -63.7328
rfingers 7.12502
rthumb 38.5061 -89.3926
lclavicle 5.77097e-015 1.19271e-014
lhumerus -74.4772 -49.3159 80.7565
lradius 143.516
lwrist 71.4947
lhand -0.0744179 0.477431
lfingers 7.12502
lthumb 25.5191 28.7884
rfemur 0 0 0
rtibia 0
rfoot 0 0
rtoes 0
lfemur -4.12429 -4.20814 -13.5726
ltibia 21.4327
lfoot -21.8416 13.4668
ltoes -56.0512
577
root -0.566297 18.6915 5.65915 0.919351 1.86048 -0.532341
lowerback 11.4316 1.0987 -1.10457
upperback -2.69053 1.55439 2.74054
thorax -9.43358 0.905384 3.26292
lowerneck -5.26566 -2.78188 -3.54255
upperneck 45.1687 -3.39623 -0.219041
head 17.7005 -1.96738 0.0414266
rclavicle 1.07313e-014 2.46493e-014
rhumerus -89.7751 48.762 -90.068
rradius 140.04
rwrist -54.4762
rhand 13.2866 -64.0368
rfingers 7.12502
rthumb 38.2364 -89.7713
lclavicle 1.07313e-014 2.46493e-014
lhumerus -76.9579 -46.9303 83.4716
lradius 142.89
lwrist 72.745
lhand -1.14674 -0.0136114
lfingers 7.12502
lthumb 24.4916 28.4404
rfemur 0 0 0
rtibia 0
rfoot 0 0
rtoes 0
lfemur -4.10902 -4.36443 -13.7473
ltibia 21.3945
lfoot -21.9345 13.601
ltoes -56.038
